<svg xmlns="http://www.w3.org/2000/svg" width="32" height="32" viewBox="0 0 32 32">
  <!-- Background rectangle with gradient -->
  <defs>
    <linearGradient id="grad1" x1="0%" y1="0%" x2="100%" y2="0%">
      <stop offset="0%" style="stop-color:#2563eb; stop-opacity:1" /> <!-- from-blue-600 -->
      <stop offset="100%" style="stop-color:#7c3aed; stop-opacity:1" /> <!-- to-purple-600 -->
    </linearGradient>
  </defs>
  <rect x="0" y="0" width="32" height="32" rx="6" ry="6" fill="url(#grad1)" />
  
  <!-- Lucide Book Open Icon (scaled to fit 20x20, centered) -->
  <g transform="translate(6, 6) scale(0.83)"> <!-- center the 24x24 icon inside 32x32 -->
    <path d="M12 7v14" fill="none" stroke="white" stroke-width="2" stroke-linecap="round" stroke-linejoin="round"/>
    <path d="M3 18a1 1 0 0 1-1-1V4a1 1 0 0 1 1-1h5a4 4 0 0 1 4 4 4 4 0 0 1 4-4h5a1 1 0 0 1 1 1v13a1 1 0 0 1-1 1h-6a3 3 0 0 0-3 3 3 3 0 0 0-3-3z" fill="none" stroke="white" stroke-width="2" stroke-linecap="round" stroke-linejoin="round"/>
  </g>
</svg>
